<svg width="603" height="604" viewBox="0 0 603 604" fill="none" xmlns="http://www.w3.org/2000/svg">
<path d="M344.854 12.7012L335.891 9.89124M344.854 12.7012L301.031 22.2658M344.854 12.7012L385.905 14.6716M301.031 22.2658L352.186 16.1023M301.031 22.2658L357.605 19.9699L352.186 16.1023M301.031 22.2658L360.883 24.1621M301.031 22.2658L361.883 28.5227M301.031 22.2658L360.543 32.8859M301.031 22.2658L356.891 37.0821L360.543 32.8859M301.031 22.2658L351.052 40.9447M301.031 22.2658L343.238 44.3192M301.031 22.2658L333.744 47.0666M301.031 22.2658L322.943 49.0743M301.031 22.2658L311.26 50.259M301.031 22.2658L240.859 31.5837M301.031 22.2658L269.203 9.17653L279.774 7.28132M301.031 22.2658L291.125 6.17004M301.031 22.2658L302.839 5.8785L291.125 6.17004M301.031 22.2658L314.488 6.41981M301.031 22.2658L335.891 9.89124M301.031 22.2658L325.642 7.77306M352.186 16.1023L400.339 21.2835L385.905 14.6716M352.192 16.1009L344.859 12.7012M385.905 14.6716L422.638 27.6732L443.613 37.253L459.508 48.2539L500.872 77.1613L533.797 114.166L549.651 132.773L575.062 178.738L582.824 201.193L597.993 253.116L601.5 306.153L598.572 332.334L590.5 384.494M385.905 14.6716L368.42 9.23308L348.54 5.14553L326.986 2.53975L304.523 1.50049L281.938 2.06057M335.891 9.89124L325.642 7.77306M335.891 9.89124L368.418 9.23314M281.938 2.06057L291.125 6.17004M281.938 2.06057L260.021 4.20106L239.546 7.85498M239.546 7.85498L221.25 12.9047M239.546 7.85498L269.206 9.17662M221.25 12.9047L186.796 25.1168L164.421 34.2072M221.25 12.9047L259.81 11.7879M221.25 12.9047L205.814 19.183L164.421 34.2072M164.421 34.2072L146.881 44.8162M146.881 44.8162L106.787 72.7413L91.2593 87.9119L56.4156 127.026L31.5438 172.213L20.5999 194.344M146.881 44.8162L134.922 56.5942L185.814 34.5431L193.834 26.4805L146.881 44.8162ZM20.5999 194.344L5.6027 245.66M20.5999 194.344L46.8223 146.495L46.8552 166.598L20.2497 217.261M20.5999 194.344L20.2497 217.261M5.6027 245.66L2.16564 298.362L1.52155 323.64L1.5 324.45M5.6027 245.66L5 270.621M1.5 324.45L9.6307 376.586M1.5 324.45L5 270.621M1.5 324.45L12.6637 350.482M9.6307 376.586L28.799 425.035L39.3164 450.078M9.6307 376.586L20.6098 402.688M39.3164 450.078L67.7542 490.902L87.0225 512.636L121.12 542.366L145.188 559.114L180.244 575.412L204.235 586.441L232.345 594.872M39.3164 450.078L60.5876 473.954L43.1557 427.619L20.6098 402.688M39.3164 450.078L20.6098 402.688M232.345 594.872L263.418 600.31L296.128 602.494L329.06 601.318L360.78 596.838L389.931 589.27L415.295 578.974L448.416 563.671L474.634 547.635L507.557 518.807M232.345 594.872L212.122 584.074L175.922 573.241M507.557 518.807L529.673 497.603L557.59 457.432L571.428 432.627L590.5 384.494M507.557 518.807L533.095 480.745M507.557 518.807L476.64 537.631M590.5 384.494L575.953 410.361M443.619 37.254L400.344 21.2831L411.151 28.84L357.609 19.9689L360.889 24.1627M360.889 24.1627L361.89 28.523M360.889 24.1627L417.874 37.0761L420.185 45.695M417.863 37.0758L411.141 28.8387L459.504 48.2537L469.619 60.3065M417.859 37.0773L469.615 60.3079M514.104 92.7068L469.625 60.306L473.43 72.9846L420.179 45.6953L417.906 54.3711L470.61 85.8157L473.428 72.9841L519.427 109.134M514.106 92.7087L500.875 77.1626M519.435 109.134L514.109 92.7069L549.658 132.772L556.355 152.507M360.547 32.8858L361.887 28.5226L420.181 45.6946M516.375 125.842L519.43 109.136L556.35 152.509M556.35 152.509L553.266 172.655M556.35 152.509L582.827 201.193L579.808 224.176M461.094 98.2992L470.604 85.8178L516.366 125.841M461.094 98.2992L445.109 109.912M461.094 98.2992L504.768 142.167M516.366 125.841L504.766 142.169M516.366 125.841L553.255 172.656M540.125 192.417L553.259 172.653L579.802 224.174M565.641 246.784L579.796 224.174L595.036 278.161M595.036 278.161L593.279 281.115L580.328 302.84L565.641 246.786M595.036 278.161L598.565 332.334L583.73 358.139M595.047 278.162L597.995 253.116M360.543 32.8859L417.903 54.3704L411.053 62.7617M553.953 326.09L580.338 302.842L583.74 358.141M575.958 410.36L583.739 358.139L557.078 382.457L553.954 326.088L516.562 346.827M575.953 410.361L549.931 434.719M575.953 410.361L557.588 457.431L533.094 480.744M351.047 40.9446L356.887 37.0821L411.05 62.7618M351.047 40.9446L343.234 44.3183M351.047 40.9446L399.817 70.5302M549.931 434.719L513.098 456.438M549.931 434.719L533.094 480.744M533.094 480.744L498.594 501.495M399.812 70.53L411.048 62.7608L461.092 98.2971M445.109 109.912L484.821 157.427M445.109 109.912L399.815 70.532L384.578 77.3517M445.109 109.912L423.155 120.157M484.828 157.429L504.775 142.168L540.13 192.419M484.828 157.429L457.125 170.944L423.162 120.157L396.047 128.568M484.828 157.429L517.104 210.958M517.109 210.96L540.135 192.418L565.656 246.785L540.48 268.053M484.828 227.438L517.105 210.961L540.366 267.787L540.476 268.054M504.938 286.998L540.472 268.053L553.948 326.089M504.938 286.998L484.825 227.436L444.438 241.053M504.938 286.998L460.281 302.687L444.435 241.052L397.562 251.115M504.938 286.998L516.556 346.828L469.452 364.021M519.266 404.158L557.082 382.457L549.94 434.719M516.562 346.829L519.263 404.159M519.263 404.159L471.594 422.153M519.263 404.159L513.104 456.439M471.594 422.153L416 435.493M471.594 422.153L466.738 474.44M333.75 47.067L343.244 44.3196L384.589 77.3513M384.589 77.3513L365.922 82.9281M384.589 77.3513L423.166 120.155M466.734 474.439L513.1 456.439L498.596 501.496M455.297 518.667L498.591 501.495L476.637 537.63M476.637 537.63L438.02 553.171L415.859 576.874L448.413 563.672L476.637 537.63ZM484.832 227.436L457.131 170.945L422.672 182.082L444.444 241.052M378.281 586.603L415.867 576.874L389.935 589.27M408.312 314.298L409.287 324.062L409.399 325.202L414.541 376.761M408.312 314.298L460.286 302.685L469.457 364.02M408.312 314.298L397.567 251.115L346.25 257.096M408.312 314.298L398.563 315.481L398.194 315.526L351.312 321.208M414.547 376.76L469.462 364.02L471.597 422.152M322.938 49.0729L333.738 47.0652L365.911 82.9277M365.911 82.9277L344.547 87.0179M365.911 82.9277L396.039 128.566M412.703 487.772L466.732 474.438L455.299 518.667M412.703 487.772L415.993 435.491M412.703 487.772L353.406 495.711M412.703 487.772L404.956 531.374M396.039 128.566L364.844 134.754M396.039 128.566L422.657 182.083L382.82 190.296M404.965 531.372L455.308 518.667L438.031 553.171L393.266 564.651M364.844 134.754L330.875 138.416M364.844 134.754L382.82 190.296M382.82 190.296L339.312 195.168L346.242 257.095M382.82 190.296L397.559 251.115M311.266 50.2607L322.949 49.076L344.559 87.0209M344.559 87.0209L321.375 89.4359L311.265 50.2585L299.172 50.5683M344.559 87.0209L364.857 134.754M353.406 495.711L291.609 497.8M353.406 495.711L349.771 538.929M349.766 538.929L404.95 531.372L393.25 564.651M344.281 571.471L393.255 564.652L378.273 586.604M337.25 592.373L378.269 586.603L360.773 596.839M354.25 384.347L414.539 376.762L415.995 435.492L354.946 443.434M337.26 592.374L329.063 601.319M292.828 258.67L346.247 257.096L351.309 321.209M291.922 323.028L351.306 321.208L354.246 384.346M354.246 384.346L291.406 386.344M354.246 384.346L354.941 443.433M353.413 495.711L354.951 443.433L291.312 445.525L291.617 497.8M330.88 138.417L321.368 89.4355L297.328 90.0702L299.167 50.5698M292.297 540.918L349.774 538.929L344.284 571.469M295.604 139.381L330.882 138.418L339.32 195.171L294.078 196.452M293.328 573.263L344.293 571.47L337.266 592.373L294.628 593.889M292.291 540.918L291.606 497.8L230.266 493.922L228.678 454.953L228.651 454.277L228.136 441.644L168.469 432.017M295.596 139.379L297.322 90.0692L273.438 88.8921L287.141 49.9916L275.681 48.554M235.234 537.23L292.292 540.92L293.315 573.263M294.075 196.449L294.088 195.995L295.601 139.379L260.562 137.593L273.443 88.894L250.719 85.9583L275.687 48.554M294.62 593.889L293.32 573.262L242.719 569.935L235.24 537.228L181.281 528.066M249.156 194.073L294.081 196.45L292.834 258.67M292.834 258.67L239.797 255.75M292.834 258.67L291.93 323.027M252.281 591.074L294.626 593.889L296.134 602.494M252.281 591.074L263.424 600.31M252.281 591.074L242.722 569.935L194.813 561.665M252.281 591.074L212.127 584.074M291.404 386.344L291.919 323.028L232.969 319.653L239.786 255.75M229.037 382.64L291.41 386.344L291.306 445.524L228.141 441.644L229.037 382.64ZM229.037 382.64L232.976 319.654L177.25 311.277M229.037 382.64L170.109 373.444L177.25 311.277M177.25 311.277L176.301 311.033L127.297 298.362L144.519 237.302M168.469 432.017L115.063 417.189M168.469 432.017L172.301 484.3L120.389 469.475M235.244 537.23L230.277 493.923L172.313 484.301L181.285 528.067M249.154 194.072L260.566 137.592L227.297 133.145L250.722 85.9561L230.1 81.397M206.58 188.16L249.159 194.074L239.801 255.751L189.609 248.499M132.875 513.934L181.275 528.067L194.803 561.665M206.569 188.161L227.292 133.148L197.219 126.256L230.095 81.3993L212.41 75.4191M151.734 548.89L194.806 561.664L212.121 584.073M168.219 179.017L206.574 188.159L189.604 248.497M168.219 179.017L135.701 167.102M168.219 179.017L144.519 237.302M144.516 237.302L189.598 248.499L177.246 311.276M117.359 359.279L170.116 373.443L168.481 432.017M301.037 22.2656L275.693 48.5547L265.25 46.3143L301.037 22.2656ZM301.037 22.2656L256.234 43.3646M301.037 22.2656L249 39.8283M301.037 22.2656L259.812 11.7889L269.209 9.17802M301.037 22.2656L279.781 7.28132M144.519 237.302L106.469 222.747L135.701 167.102M85.2656 281.602L127.291 298.362L117.347 359.281M73.0469 340.917L117.349 359.28L115.065 417.19M73.0469 340.917L38.9219 319.31L52.8055 261.857M73.0469 340.917L70.2375 397.971M70.25 397.972L115.076 417.19L120.402 469.476M256.227 43.3635L265.241 46.3132L230.094 81.3968M132.883 513.934L120.397 469.475L76.7813 450.248L92.1227 495.586M92.125 495.587L132.885 513.935L151.741 548.892M171.591 117.248L197.224 126.256L168.219 179.019M171.591 117.248L151.399 106.54M171.591 117.248L135.701 167.102M175.916 573.24L151.73 548.891L115.328 532.274L145.181 559.113L175.916 573.24ZM175.916 573.24L204.228 586.44M135.701 167.102L110.292 152.992M212.417 75.4191L171.594 117.248M85.2783 281.601L106.474 222.747L76.9375 205.563L110.297 152.991M52.8125 261.857L85.2734 281.602L73.0526 340.917M70.2375 397.971L35.7344 375.367L38.9238 319.312L16.0781 295.52L30.9703 240.081L20.2453 217.26M70.2375 397.971L76.7752 450.249L43.1501 427.619M249.003 39.8277L256.237 43.364L212.419 75.4171L198.359 68.2787M12.6563 350.48L35.7324 375.366L43.1481 427.618M243.817 35.8499L249.003 39.83L198.359 68.281M243.817 35.8499L240.865 31.5852M243.817 35.8499L188.438 60.2891M20.6098 402.688L12.6637 350.482M188.427 60.2865L198.348 68.2782L151.391 106.539M188.427 60.2865L182.972 51.7747M188.427 60.2865L137.355 94.6105M137.365 94.6105L151.402 106.539L110.297 152.991M110.297 152.991L92.8699 137.336M56.8933 186.56L76.9259 205.561L52.8059 261.855L30.9688 240.079L56.8933 186.56ZM56.8933 186.56L46.8493 166.596M137.355 94.6105L92.8594 137.336M137.355 94.6105L129.891 81.9705L182.972 51.7747M83.894 120.826L92.8713 137.338L56.9063 186.563M5 270.621L16.0831 295.519L12.6637 350.482M5 270.621L20.2497 217.261M243.812 35.8482L301.034 22.2656L241.954 22.8754L240.242 27.2032L182.125 43.0818M182.972 51.7747L182.117 43.0825M240.246 27.2015L240.866 31.5824L182.984 51.7737M129.138 69.1319L129.887 81.7523L129.901 81.9698L83.8906 120.824M83.8906 120.824L83.4444 104.135M83.8906 120.824L46.8594 166.596M83.4444 104.135L91.2655 87.9118L134.93 56.5945L129.141 69.1328L182.13 43.0814L185.823 34.5435M83.4444 104.135L46.8281 146.494L56.4217 127.026M129.131 69.1319L83.4375 104.135M240.234 27.2028L301.026 22.2656L251.938 15.0233M185.812 34.5427L241.949 22.8743L245.905 18.764L301.029 22.2649M251.935 15.0233L245.901 18.7644L193.828 26.4806L205.806 19.1829M259.808 11.7878L251.942 15.0232L205.812 19.1829M291.121 6.17067L279.77 7.28328L260.016 4.20211M314.493 6.41868L302.844 5.87758L304.527 1.50049M325.638 7.77359L314.484 6.41948L326.57 2.66954L326.981 2.54055M325.642 7.77306L348.538 5.14559M301.04 22.2656L299.176 50.5687L287.156 49.9922L301.04 22.2656ZM60.5938 473.954L92.1283 495.587L115.342 532.275L87.0297 512.636L60.5938 473.954Z" stroke="#E3ECEF" style="stroke:#E3ECEF;stroke:color(display-p3 0.8902 0.9255 0.9373);stroke-opacity:1;" stroke-width="3" stroke-linecap="round" stroke-linejoin="round"/>
</svg>
