<svg width="673" height="600" viewBox="0 0 673 600" fill="none" xmlns="http://www.w3.org/2000/svg">
<path d="M195.447 124C240.454 128.527 282.001 150.19 311.496 184.51C340.99 218.83 356.175 263.182 353.91 308.391C351.646 353.6 332.105 396.21 299.329 427.406C266.553 458.603 223.05 476 177.816 476C132.582 476 89.0786 458.603 56.3027 427.406C23.5268 396.21 3.9858 353.6 1.72127 308.391C-0.543252 263.182 14.6419 218.83 44.1361 184.51C73.6303 150.19 115.177 128.527 160.184 124H195.447ZM195.447 124C150.44 128.527 108.893 150.19 79.3993 184.51C49.905 218.83 34.7199 263.182 36.9844 308.391C39.2489 353.6 58.7899 396.21 91.5658 427.406C124.342 458.603 167.845 476 213.079 476C258.313 476 301.816 458.603 334.592 427.406C367.368 396.21 386.909 353.6 389.174 308.391C391.438 263.182 376.253 218.83 346.759 184.51C317.265 150.19 275.718 128.527 230.711 124M195.447 124H230.711M230.711 124C185.704 128.527 144.157 150.19 114.662 184.51C85.1682 218.83 69.983 263.182 72.2476 308.391C74.5121 353.6 94.053 396.21 126.829 427.406C159.605 458.603 203.108 476 248.342 476M230.711 124H265.974M248.342 476C293.576 476 337.079 458.603 369.855 427.406C402.631 396.21 422.172 353.6 424.437 308.391C426.701 263.182 411.516 218.83 382.022 184.51C352.528 150.19 310.981 128.527 265.974 124M248.342 476H283.605M265.974 124C220.967 128.527 179.42 150.19 149.926 184.51C120.431 218.83 105.246 263.182 107.511 308.391C109.775 353.6 129.316 396.21 162.092 427.406C194.868 458.603 238.372 476 283.605 476M265.974 124H301.237M283.605 476C328.839 476 372.343 458.603 405.118 427.406C437.894 396.21 457.435 353.6 459.7 308.391C461.964 263.182 446.779 218.83 417.285 184.51C387.791 150.19 346.244 128.527 301.237 124M283.605 476H318.868M301.237 124C256.23 128.527 214.683 150.19 185.189 184.51C155.694 218.83 140.509 263.182 142.774 308.391C145.038 353.6 164.579 396.21 197.355 427.406C230.131 458.603 273.635 476 318.868 476M301.237 124H336.5M318.868 476C364.102 476 407.606 458.603 440.382 427.406C473.158 396.21 492.699 353.6 494.963 308.391C497.228 263.182 482.042 218.83 452.548 184.51C423.054 150.19 381.507 128.527 336.5 124M318.868 476H354.132M336.5 124C291.493 128.527 249.946 150.19 220.452 184.51C190.958 218.83 175.772 263.182 178.037 308.391C180.301 353.6 199.842 396.21 232.618 427.406C265.394 458.603 308.898 476 354.132 476M336.5 124H371.763M354.132 476C399.365 476 442.869 458.603 475.645 427.406C508.421 396.21 527.962 353.6 530.226 308.391C532.491 263.182 517.306 218.83 487.811 184.51C458.317 150.19 416.77 128.527 371.763 124M354.132 476H389.395M371.763 124C326.756 128.527 285.209 150.19 255.715 184.51C226.221 218.83 211.036 263.182 213.3 308.391C215.565 353.6 235.106 396.21 267.882 427.406C300.657 458.603 344.161 476 389.395 476M371.763 124H407.026M389.395 476C434.628 476 478.132 458.603 510.908 427.406C543.684 396.21 563.225 353.6 565.489 308.391C567.754 263.182 552.569 218.83 523.075 184.51C493.58 150.19 452.033 128.527 407.026 124M389.395 476H424.658M407.026 124C362.019 128.527 320.472 150.19 290.978 184.51C261.484 218.83 246.299 263.182 248.563 308.391C250.828 353.6 270.369 396.21 303.145 427.406C335.921 458.603 379.424 476 424.658 476M407.026 124H442.289M424.658 476C469.892 476 513.395 458.603 546.171 427.406C578.947 396.21 598.488 353.6 600.752 308.391C603.017 263.182 587.832 218.83 558.338 184.51C528.843 150.19 487.296 128.527 442.289 124M424.658 476H459.921M442.289 124C397.282 128.527 355.735 150.19 326.241 184.51C296.747 218.83 281.562 263.182 283.826 308.391C286.091 353.6 305.632 396.21 338.408 427.406C371.184 458.603 414.687 476 459.921 476M442.289 124H477.553M459.921 476C505.155 476 548.658 458.603 581.434 427.406C614.21 396.21 633.751 353.6 636.016 308.391C638.28 263.182 623.095 218.83 593.601 184.51C564.106 150.19 522.56 128.527 477.553 124M459.921 476H495.184M477.553 124C432.546 128.527 390.999 150.19 361.504 184.51C332.01 218.83 316.825 263.182 319.09 308.391C321.354 353.6 340.895 396.21 373.671 427.406C406.447 458.603 449.95 476 495.184 476M477.553 124C477.553 124 487 124.001 512.816 124C538.631 123.999 599.37 150.19 628.864 184.51C658.358 218.83 673.543 263.182 671.279 308.391C669.014 353.6 649.473 396.21 616.697 427.406C583.921 458.603 540.418 476 495.184 476" stroke="#E3ECEF" style="stroke:#E3ECEF;stroke:color(display-p3 0.8902 0.9255 0.9373);stroke-opacity:1;" stroke-width="3" stroke-linecap="round" stroke-linejoin="round"/>
</svg>
