<svg width="718" height="600" viewBox="0 0 718 600" fill="none" xmlns="http://www.w3.org/2000/svg">
<path d="M359 299.5C359 299.5 232.005 486 149.994 486C67.983 486 1.5 402.501 1.5 299.5C1.5 196.499 67.983 113 149.994 113C232.005 113 359 299.5 359 299.5ZM359 299.5C359 299.5 485.995 486 568.006 486C650.017 486 716.5 402.501 716.5 299.5C716.5 196.499 650.017 113 568.006 113C485.995 113 359 299.5 359 299.5ZM359 299.5C359 299.5 248.127 486 176.527 486C104.927 486 46.8842 402.501 46.8842 299.5C46.8842 196.499 104.927 113 176.527 113C248.127 113 359 299.5 359 299.5ZM359 299.5C359 299.5 469.873 486 541.473 486C613.073 486 671.116 402.501 671.116 299.5C671.116 196.499 613.073 113 541.473 113C469.873 113 359 299.5 359 299.5ZM359 299.5C359 299.5 264.814 486 203.991 486C143.168 486 93.8608 402.501 93.8608 299.5C93.8608 196.499 143.168 113 203.991 113C264.814 113 359 299.5 359 299.5ZM359 299.5C359 299.5 453.186 486 514.009 486C574.832 486 624.139 402.501 624.139 299.5C624.139 196.499 574.832 113 514.009 113C453.186 113 359 299.5 359 299.5ZM359 299.5C359 299.5 284.33 486 236.11 486C187.89 486 148.8 402.501 148.8 299.5C148.8 196.499 187.89 113 236.11 113C284.33 113 359 299.5 359 299.5ZM359 299.5C359 299.5 433.67 486 481.89 486C530.11 486 569.2 402.501 569.2 299.5C569.2 196.499 530.11 113 481.89 113C433.67 113 359 299.5 359 299.5ZM359 299.5C359 299.5 303.28 486 267.298 486C231.315 486 202.146 402.501 202.146 299.5C202.146 196.499 231.315 113 267.298 113C303.28 113 359 299.5 359 299.5ZM359 299.5C359 299.5 414.72 486 450.702 486C486.685 486 515.854 402.501 515.854 299.5C515.854 196.499 486.685 113 450.702 113C414.72 113 359 299.5 359 299.5ZM359 299.5C359 299.5 322.231 486 298.486 486C274.741 486 255.492 402.501 255.492 299.5C255.492 196.499 274.741 113 298.486 113C322.231 113 359 299.5 359 299.5ZM359 299.5C359 299.5 395.769 486 419.514 486C443.259 486 462.508 402.501 462.508 299.5C462.508 196.499 443.259 113 419.514 113C395.769 113 359 299.5 359 299.5ZM359 299.5C359 299.5 341.181 486 329.674 486C318.167 486 308.839 402.501 308.839 299.5C308.839 196.499 318.167 113 329.674 113C341.181 113 359 299.5 359 299.5ZM359 299.5C359 299.5 376.819 486 388.326 486C399.833 486 409.161 402.501 409.161 299.5C409.161 196.499 399.833 113 388.326 113C376.819 113 359 299.5 359 299.5ZM359 299.5C359 402.501 359.074 486 359.165 486C359.257 486 359.398 299.5 359.398 299.5M359 299.5C359 196.499 359.074 113 359.165 113C359.257 113 359.398 299.5 359.398 299.5M359.398 299.5C359.398 299.5 359.54 486 359.631 486C359.722 486 359.796 402.501 359.796 299.5C359.796 196.499 359.722 113 359.631 113C359.54 113 359.398 299.5 359.398 299.5Z" stroke="#E3ECEF" style="stroke:#E3ECEF;stroke:color(display-p3 0.8902 0.9255 0.9373);stroke-opacity:1;" stroke-width="3" stroke-miterlimit="10" stroke-linecap="round" stroke-linejoin="round"/>
</svg>
